<svg xmlns="http://www.w3.org/2000/svg" width="350" height="534" viewBox="0 0 350 534">
  <defs>
    <style>
      .cls-1 {
        fill: #ebebeb;
        fill-rule: evenodd;
        opacity: 0.1;
      }
    </style>
  </defs>
  <path id="_2" data-name="2" class="cls-1" d="M925.73,1896.45a131.2,131.2,0,0,1,19.776-23.26,321.324,321.324,0,0,1,28.747-24.17q16.291-12.255,33.877-24.72,26-17.94,50.17-37.17a268.962,268.962,0,0,0,42.66-42.3,198.064,198.064,0,0,0,29.67-51.26c7.44-18.8,11.37-40.4,11.37-64.57,0-22.71-4.05-43.16-11.74-61.59a127.309,127.309,0,0,0-33.51-47.06q-21.975-19.41-53.65-29.85c-21.12-6.96-44.492-10.5-71.1-10.5-57.375,0-109.35,14.46-155,44v102c41.256-35.89,84.435-53.65,129.6-53.65q39.183,0,58.226,17.21t19.05,50.9a89.375,89.375,0,0,1-5.86,32.41,113.22,113.22,0,0,1-17.77,30.03,230.555,230.555,0,0,1-29.292,29.85q-17.4,15.015-40.467,31.49-21.972,15.75-46.325,35.34a295.45,295.45,0,0,0-44.861,45.05,239.8,239.8,0,0,0-34.058,57.49C796.212,1923.49,792,1947.15,792,1974v40h349v-96H918C918,1911.17,920.844,1904.02,925.73,1896.45Z" transform="translate(-792 -1480)"/>
</svg>
