<svg xmlns="http://www.w3.org/2000/svg" width="334" height="506" viewBox="0 0 334 506">
  <defs>
    <style>
      .cls-1 {
        fill: #ebebeb;
        fill-rule: evenodd;
        opacity: 0.1;
      }
    </style>
  </defs>
  <path id="_3" data-name="3" class="cls-1" d="M1101.64,2453.64c21.48,22.34,32.36,49.89,32.36,82.36,0,49.07-18.08,87.74-53.97,116.31q-3.705,2.955-7.61,5.69H800v-90c35.156,25.63,75.32,38.53,122.2,38.53q44.307,0,69.031-19.04t24.724-53.1q0-35.16-30.583-54.2t-84.046-19.04L853,2461v-88l44.659-.48q102.534,0,102.541-68.11,0-64.08-78.737-64.09c-35.156,0-68.264,10.97-101.463,33.68v-94c36.861-18.55,78.928-28,128-28,53.71,0,95.35,12.15,125.26,36.32S1118,2243.43,1118,2282c0,68.61-34.67,112.01-104.25,129.34v1.83Q1069.415,2420.13,1101.64,2453.64Z" transform="translate(-800 -2152)"/>
</svg>
