<svg id="arrow" xmlns="http://www.w3.org/2000/svg" xmlns:xlink="http://www.w3.org/1999/xlink" width="90" height="120" viewBox="0 0 90 120">
  <defs>
    <style>
      .cls-1, .cls-2, .cls-3, .cls-4, .cls-5 {
        fill-rule: evenodd;
      }

      .cls-1 {
        fill: url(#linear-gradient);
      }

      .cls-2 {
        fill: url(#linear-gradient-2);
      }

      .cls-3 {
        fill: #0054a3;
      }

      .cls-4 {
        fill: url(#linear-gradient-3);
      }

      .cls-5 {
        fill: url(#linear-gradient-4);
      }
    </style>
    <linearGradient id="linear-gradient" x1="420" y1="3564.5" x2="496" y2="3564.5" gradientUnits="userSpaceOnUse">
      <stop offset="0" stop-color="#1d53da"/>
      <stop offset="1" stop-color="#3e74fb"/>
    </linearGradient>
    <linearGradient id="linear-gradient-2" x1="420" y1="3557.5" x2="496" y2="3557.5" gradientUnits="userSpaceOnUse">
      <stop offset="0" stop-color="#039af7"/>
      <stop offset="1" stop-color="#00b8fe"/>
    </linearGradient>
    <linearGradient id="linear-gradient-3" x1="471" y1="3563" x2="471" y2="3477" gradientUnits="userSpaceOnUse">
      <stop offset="0" stop-color="#0f8fc4"/>
      <stop offset="0.005" stop-color="#0f8fc4"/>
      <stop offset="0.322" stop-color="#4d5983"/>
      <stop offset="1" stop-color="#9ba9db"/>
    </linearGradient>
    <linearGradient id="linear-gradient-4" x1="433.115" y1="3563" x2="470.885" y2="3482" gradientUnits="userSpaceOnUse">
      <stop offset="0" stop-color="#0189c1"/>
      <stop offset="0.505" stop-color="#323e60"/>
      <stop offset="0.515" stop-color="#333c5e"/>
    </linearGradient>
  </defs>
  <path id="Rectangle_3_copy_6" data-name="Rectangle 3 copy 6" class="cls-1" d="M496,3565h-0.062c-0.322,5.3-4.042,10.56-11.222,14.62-14.923,8.45-38.981,8.52-53.737.17-7.207-4.08-10.836-9.41-10.949-14.79H420v-8.01h2.571a25.437,25.437,0,0,1,8.711-7.61c14.923-8.45,38.981-8.52,53.736-.17a24.179,24.179,0,0,1,8.7,7.78H496V3565Z" transform="translate(-413 -3471.515)"/>
  <path id="Rectangle_3_copy_7" data-name="Rectangle 3 copy 7" class="cls-2" d="M485.018,3542.23c14.756,8.34,14.62,21.93-.3,30.37s-38.981,8.51-53.737.17-14.619-21.94.3-30.37S470.263,3533.89,485.018,3542.23Z" transform="translate(-413 -3471.515)"/>
  <path class="cls-3" d="M444,3545l32,19-8,6-32-19Z" transform="translate(-413 -3471.515)"/>
  <path class="cls-4" d="M481,3535l-29-53,8-5,30,53Zm-5,22-8,6v-36h8v30Z" transform="translate(-413 -3471.515)"/>
  <path id="Rectangle_4_copy" data-name="Rectangle 4 copy" class="cls-5" d="M422,3500.38L452,3482l30,52.77L468,3527v36l-32-19v-36Z" transform="translate(-413 -3471.515)"/>
</svg>
