<svg xmlns="http://www.w3.org/2000/svg" xmlns:xlink="http://www.w3.org/1999/xlink" width="80" height="60" viewBox="0 0 80 60">
  <defs>
    <style>
      .cls-1, .cls-2, .cls-3 {
        fill-rule: evenodd;
      }

      .cls-1 {
        fill: url(#linear-gradient);
      }

      .cls-2 {
        fill: url(#linear-gradient-2);
      }

      .cls-3 {
        fill: #a3e1ff;
      }
    </style>
    <linearGradient id="linear-gradient" x1="1423" y1="3514.5" x2="1499" y2="3514.5" gradientUnits="userSpaceOnUse">
      <stop offset="0" stop-color="#1d53da"/>
      <stop offset="1" stop-color="#3e74fb"/>
    </linearGradient>
    <linearGradient id="linear-gradient-2" x1="1423" y1="3507.5" x2="1499" y2="3507.5" gradientUnits="userSpaceOnUse">
      <stop offset="0" stop-color="#039af7"/>
      <stop offset="1" stop-color="#00b8fe"/>
    </linearGradient>
  </defs>
  <path id="Rectangle_3_copy_26" data-name="Rectangle 3 copy 26" class="cls-1" d="M1499,3515h-0.06c-0.32,5.3-4.04,10.56-11.22,14.62-14.93,8.45-38.99,8.52-53.74.17-7.21-4.08-10.84-9.41-10.95-14.79H1423v-8h2.56a25.465,25.465,0,0,1,8.72-7.62c14.92-8.45,38.98-8.52,53.74-.17a24.052,24.052,0,0,1,8.7,7.79H1499v8Z" transform="translate(-1421 -3481.03)"/>
  <path id="Rectangle_3_copy_27" data-name="Rectangle 3 copy 27" class="cls-2" d="M1488.02,3492.23c14.75,8.34,14.62,21.93-.3,30.37s-38.99,8.51-53.74.17-14.62-21.94.3-30.37S1473.26,3483.89,1488.02,3492.23Z" transform="translate(-1421 -3481.03)"/>
  <path class="cls-3" d="M1472.4,3491.6l-3.33,1.95-0.56-.32c-0.31-.18-2.14-1.26-4.08-2.4l-3.51-2.07-2.16,1.26-2.16,1.27,1.71,1.01a9.3,9.3,0,0,1,1.91,1.23,1.174,1.174,0,0,1,.43.88,0.852,0.852,0,0,1-.13.5c-0.27.46,0.55-.05-9.5,5.84-6.02,3.52-9.13,5.33-9.27,5.39a3.468,3.468,0,0,1-1.77.18c-0.49-.09-0.64-0.17-2.33-1.16l-1.56-.92-2.72,1.14c-1.49.63-2.76,1.15-2.81,1.17l-0.09.04,2.94,1.72c1.63,0.96,3.46,2.04,4.07,2.41l1.12,0.68-3.35,1.97-3.35,1.96,2.02,1.18,2.03,1.19,3.33-1.95,3.32-1.95,0.86,0.53c0.47,0.29,1.19.73,1.59,0.96l0.73,0.43-3.3,1.94-3.3,1.93,2.02,1.19,2.03,1.18,2.37-1.39c2.01-1.17,4.33-2.5,4.37-2.5,0.01,0,.27.13,0.6,0.3,4.54,2.31,8.13,3.43,11.58,3.61a17.074,17.074,0,0,0,8.4-1.74,23.174,23.174,0,0,0,2.46-1.44c1.65-1.24,2.32-2.48,2.08-3.81a5.659,5.659,0,0,0-1.73-2.86l-0.23-.22,0.41,0.07a14.562,14.562,0,0,0,5.1.01,11.536,11.536,0,0,0,3.82-1.43,8.342,8.342,0,0,0,2.21-1.71,3.368,3.368,0,0,0,.94-2.26c0.02-1.59-1.18-3.3-3.75-5.33-0.28-.23-1.32-0.99-1.41-1.05-0.04-.02.64-0.43,3.27-1.97l3.32-1.95-2.02-1.18-2.03-1.19-3.23,1.9-3.24,1.89-0.86-.51c-0.48-.27-1.22-0.7-1.64-0.93l-0.77-.42,3.26-1.91,3.26-1.91-2.03-1.19-2.02-1.18Zm0.52,9.67a7.628,7.628,0,0,1,2.3,2.28c0.64,1.13.32,2.08-.99,2.93-1.56,1.01-3.61,1.21-6.08.58a20.837,20.837,0,0,1-4.48-1.84c-0.75-.39-2.95-1.67-3.04-1.76l-0.06-.06,4.02-2.36,4.01-2.35,0.28,0.15c0.16,0.08,1.04.59,1.96,1.14C1472.09,3500.72,1472.61,3501.04,1472.92,3501.27Zm-12.48,6.83c2.23,1.42,3.51,2.55,4.12,3.63a2,2,0,0,1,.08,2.21,5.243,5.243,0,0,1-3.4,1.87,13.031,13.031,0,0,1-6.92-1.21,42.583,42.583,0,0,1-5.77-3.01l-0.95-.59,4.44-2.61,4.45-2.6,0.86,0.49c0.47,0.27,1.17.68,1.57,0.9S1459.99,3507.82,1460.44,3508.1Z" transform="translate(-1421 -3481.03)"/>
</svg>
