<svg xmlns="http://www.w3.org/2000/svg" xmlns:xlink="http://www.w3.org/1999/xlink" width="240" height="170" viewBox="0 0 240 170">
  <defs>
    <style>
      .cls-1, .cls-10, .cls-11, .cls-2, .cls-3, .cls-4, .cls-5, .cls-6, .cls-7, .cls-8, .cls-9 {
        fill-rule: evenodd;
      }

      .cls-1 {
        fill: url(#linear-gradient);
      }

      .cls-2 {
        fill: url(#linear-gradient-2);
      }

      .cls-3 {
        fill: #333c5e;
      }

      .cls-4 {
        fill: #667196;
      }

      .cls-5 {
        fill: #9fa5b9;
      }

      .cls-6 {
        fill: #5b678e;
      }

      .cls-7 {
        fill: #8991ab;
      }

      .cls-8 {
        fill: #2e79f6;
      }

      .cls-9 {
        fill: #00b3fd;
      }

      .cls-10 {
        fill: url(#linear-gradient-3);
      }

      .cls-11 {
        fill: url(#linear-gradient-4);
      }
    </style>
    <linearGradient id="linear-gradient" x1="1015.97" y1="3622.5" x2="1238" y2="3622.5" gradientUnits="userSpaceOnUse">
      <stop offset="0" stop-color="#c4cbdc"/>
      <stop offset="0.464" stop-color="#c0c7da"/>
      <stop offset="0.541" stop-color="#d7dbe8"/>
      <stop offset="1" stop-color="#e4e7f0"/>
    </linearGradient>
    <linearGradient id="linear-gradient-2" x1="1016" y1="3608" x2="1238" y2="3608" gradientUnits="userSpaceOnUse">
      <stop offset="0" stop-color="#ebeef7"/>
      <stop offset="1" stop-color="#f6f8fe"/>
    </linearGradient>
    <linearGradient id="linear-gradient-3" x1="1125.5" y1="3625.97" x2="1125.5" y2="3586.97" gradientUnits="userSpaceOnUse">
      <stop offset="0" stop-color="#003182"/>
      <stop offset="1" stop-color="#00b3fd"/>
    </linearGradient>
    <linearGradient id="linear-gradient-4" y1="3608.97" y2="3569.97" xlink:href="#linear-gradient-3"/>
  </defs>
  <path id="Rounded_Rectangle_7_copy" data-name="Rounded Rectangle 7 copy" class="cls-1" d="M1238,3636h-0.09a1.93,1.93,0,0,1-1.18,2.26l-106.7,62a6.7,6.7,0,0,1-6.1,0l-106.7-62a1.933,1.933,0,0,1-1.17-2.26H1016v-27h0.07a1.916,1.916,0,0,1,1.16-2.28l106.7-62a6.7,6.7,0,0,1,6.1,0l106.7,62a1.924,1.924,0,0,1,1.17,2.28h0.1v27Z" transform="translate(-1006.985 -3537)"/>
  <path id="Rounded_Rectangle_7_copy_2" data-name="Rounded Rectangle 7 copy 2" class="cls-2" d="M1236.73,3609.77l-106.7,62.49a6.7,6.7,0,0,1-6.1,0l-106.7-62.49c-1.68-.98-1.68-2.58,0-3.57l106.7-62.48a6.7,6.7,0,0,1,6.1,0l106.7,62.48C1238.42,3607.19,1238.42,3608.79,1236.73,3609.77Zm-6.92-3.43-99.97-57.67a6.313,6.313,0,0,0-5.71,0l-99.97,57.67c-1.58.91-1.58,2.39,0,3.3l99.97,57.67a6.313,6.313,0,0,0,5.71,0l99.97-57.67C1231.39,3608.73,1231.39,3607.25,1229.81,3606.34Z" transform="translate(-1006.985 -3537)"/>
  <path id="Rounded_Rectangle_7_copy_3" data-name="Rounded Rectangle 7 copy 3" class="cls-3" d="M1124.13,3667.31l-80.3-46.32,80.3-46.32a6.313,6.313,0,0,1,5.71,0l80.29,46.32-80.29,46.32A6.313,6.313,0,0,1,1124.13,3667.31Z" transform="translate(-1006.985 -3537)"/>
  <path id="Rectangle_6_copy" data-name="Rectangle 6 copy" class="cls-4" d="M1224.6,3626.37a0.852,0.852,0,0,1-1.39-.81,3.032,3.032,0,0,1,1.4-2.38,0.853,0.853,0,0,1,1.39.81A3.043,3.043,0,0,1,1224.6,3626.37Zm-0.01,2.4a0.853,0.853,0,0,1,1.39.81,3.043,3.043,0,0,1-1.4,2.38,0.853,0.853,0,0,1-1.39-.81A3.032,3.032,0,0,1,1224.59,3628.77Zm-0.02,5.59a0.853,0.853,0,0,1,1.39.81,3.032,3.032,0,0,1-1.4,2.38,0.853,0.853,0,0,1-1.39-.81A3.017,3.017,0,0,1,1224.57,3634.36Zm-5.55-4.85a0.853,0.853,0,0,1-1.39-.81,3.017,3.017,0,0,1,1.4-2.38,0.853,0.853,0,0,1,1.39.81A3.059,3.059,0,0,1,1219.02,3629.51Zm-0.01,2.4a0.853,0.853,0,0,1,1.39.81,3,3,0,0,1-1.4,2.37,0.848,0.848,0,0,1-1.39-.8A3.017,3.017,0,0,1,1219.01,3631.91Zm-0.02,5.59a0.851,0.851,0,0,1,1.39.81,3,3,0,0,1-1.4,2.37,0.851,0.851,0,0,1-1.39-.81A3.014,3.014,0,0,1,1218.99,3637.5Zm-5.55-4.86a0.853,0.853,0,0,1-1.39-.81,3,3,0,0,1,1.4-2.37,0.849,0.849,0,0,1,1.39.8A3.017,3.017,0,0,1,1213.44,3632.64Zm-0.01,2.41a0.848,0.848,0,0,1,1.39.8,3.017,3.017,0,0,1-1.4,2.38,0.853,0.853,0,0,1-1.39-.81A3,3,0,0,1,1213.43,3635.05Zm-0.02,5.58a0.853,0.853,0,0,1,1.39.81,3.017,3.017,0,0,1-1.4,2.38,0.853,0.853,0,0,1-1.39-.81A3.032,3.032,0,0,1,1213.41,3640.63Z" transform="translate(-1006.985 -3537)"/>
  <path class="cls-5" d="M1224.6,3627.37a0.852,0.852,0,0,1-1.39-.81,3.032,3.032,0,0,1,1.4-2.38,0.853,0.853,0,0,1,1.39.81A3.043,3.043,0,0,1,1224.6,3627.37Zm-0.01,2.4a0.853,0.853,0,0,1,1.39.81,3.043,3.043,0,0,1-1.4,2.38,0.853,0.853,0,0,1-1.39-.81A3.032,3.032,0,0,1,1224.59,3629.77Zm-0.02,5.59a0.853,0.853,0,0,1,1.39.81,3.032,3.032,0,0,1-1.4,2.38,0.853,0.853,0,0,1-1.39-.81A3.017,3.017,0,0,1,1224.57,3635.36Zm-5.55-4.85a0.853,0.853,0,0,1-1.39-.81,3.017,3.017,0,0,1,1.4-2.38,0.853,0.853,0,0,1,1.39.81A3.059,3.059,0,0,1,1219.02,3630.51Zm-0.01,2.4a0.853,0.853,0,0,1,1.39.81,3,3,0,0,1-1.4,2.37,0.848,0.848,0,0,1-1.39-.8A3.017,3.017,0,0,1,1219.01,3632.91Zm-0.02,5.59a0.851,0.851,0,0,1,1.39.81,3,3,0,0,1-1.4,2.37,0.851,0.851,0,0,1-1.39-.81A3.014,3.014,0,0,1,1218.99,3638.5Zm-5.55-4.86a0.853,0.853,0,0,1-1.39-.81,3,3,0,0,1,1.4-2.37,0.849,0.849,0,0,1,1.39.8A3.017,3.017,0,0,1,1213.44,3633.64Zm-0.01,2.41a0.848,0.848,0,0,1,1.39.8,3.017,3.017,0,0,1-1.4,2.38,0.853,0.853,0,0,1-1.39-.81A3,3,0,0,1,1213.43,3636.05Zm-0.02,5.58a0.853,0.853,0,0,1,1.39.81,3.017,3.017,0,0,1-1.4,2.38,0.853,0.853,0,0,1-1.39-.81A3.032,3.032,0,0,1,1213.41,3641.63Z" transform="translate(-1006.985 -3537)"/>
  <path class="cls-6" d="M1107,3677.79c0,1.16-.9,1.56-2,0.89l-9.99-6.06a4.383,4.383,0,0,1-2-3.32l0.01-2.1c0-1.17.9-1.56,2-.89l10,6.06a4.381,4.381,0,0,1,1.99,3.31Zm-21-11.11-9.99-6.06a4.383,4.383,0,0,1-2-3.32l0.01-2.1c0-1.16.9-1.56,2-.89l10,6.06a4.381,4.381,0,0,1,1.99,3.31l-0.01,2.11C1088,3666.95,1087.1,3667.35,1086,3666.68Z" transform="translate(-1006.985 -3537)"/>
  <path id="Rectangle_7_copy" data-name="Rectangle 7 copy" class="cls-7" d="M1107,3678.79c0,1.16-.9,1.56-2,0.89l-9.99-6.06a4.383,4.383,0,0,1-2-3.32l0.01-2.1c0-1.17.9-1.56,2-.89l10,6.06a4.381,4.381,0,0,1,1.99,3.31Zm-21-11.11-9.99-6.06a4.383,4.383,0,0,1-2-3.32l0.01-2.1c0-1.16.9-1.56,2-.89l10,6.06a4.381,4.381,0,0,1,1.99,3.31l-0.01,2.11C1088,3667.95,1087.1,3668.35,1086,3667.68Z" transform="translate(-1006.985 -3537)"/>
  <path class="cls-8" d="M1163,3616h-0.06c-0.32,5.29-3.99,10.54-11.08,14.6-14.72,8.43-38.46,8.51-53.03.17-7.11-4.07-10.69-9.4-10.8-14.77H1088v-8h2.54a25.267,25.267,0,0,1,8.59-7.6c14.73-8.43,38.47-8.51,53.03-.17a24.014,24.014,0,0,1,8.59,7.77H1163v8Z" transform="translate(-1006.985 -3537)"/>
  <path id="Rectangle_3_copy" data-name="Rectangle 3 copy" class="cls-9" d="M1152.16,3593.21c14.56,8.35,14.43,21.96-.3,30.41s-38.46,8.52-53.03.17-14.42-21.97.3-30.41S1137.6,3584.86,1152.16,3593.21Z" transform="translate(-1006.985 -3537)"/>
  <path id="Rectangle_3_copy_2" data-name="Rectangle 3 copy 2" class="cls-10" d="M1098.83,3619.77c-6.33-3.63-9.87-8.25-10.66-13,0.78-4.88,4.43-9.64,10.96-13.39,14.73-8.45,38.47-8.52,53.03-.17,6.33,3.63,9.88,8.26,10.66,13.02-0.77,4.87-4.42,9.63-10.96,13.37C1137.14,3628.03,1113.4,3628.11,1098.83,3619.77Z" transform="translate(-1006.985 -3537)"/>
  <path id="Rectangle_3_copy_11" data-name="Rectangle 3 copy 11" class="cls-8" d="M1163,3599h-0.06c-0.32,5.29-3.99,10.54-11.08,14.6-14.72,8.43-38.46,8.51-53.03.17-7.11-4.07-10.69-9.4-10.8-14.77H1088v-8h2.54a25.267,25.267,0,0,1,8.59-7.6c14.73-8.43,38.47-8.51,53.03-.17a24.014,24.014,0,0,1,8.59,7.77H1163v8Z" transform="translate(-1006.985 -3537)"/>
  <path id="Rectangle_3_copy_3" data-name="Rectangle 3 copy 3" class="cls-9" d="M1152.16,3576.21c14.56,8.35,14.43,21.96-.3,30.41s-38.46,8.52-53.03.17-14.42-21.97.3-30.41S1137.6,3567.86,1152.16,3576.21Z" transform="translate(-1006.985 -3537)"/>
  <path id="Rectangle_3_copy_12" data-name="Rectangle 3 copy 12" class="cls-11" d="M1098.83,3602.77c-6.33-3.63-9.87-8.25-10.66-13,0.78-4.88,4.43-9.64,10.96-13.39,14.73-8.45,38.47-8.52,53.03-.17,6.33,3.63,9.88,8.26,10.66,13.02-0.77,4.87-4.42,9.63-10.96,13.37C1137.14,3611.03,1113.4,3611.11,1098.83,3602.77Z" transform="translate(-1006.985 -3537)"/>
  <path id="Rectangle_3_copy_4" data-name="Rectangle 3 copy 4" class="cls-8" d="M1163,3582h-0.06c-0.32,5.29-3.99,10.54-11.08,14.6-14.72,8.43-38.46,8.51-53.03.17-7.11-4.07-10.69-9.4-10.8-14.77H1088v-8h2.54a25.267,25.267,0,0,1,8.59-7.6c14.73-8.43,38.47-8.51,53.03-.17a24.014,24.014,0,0,1,8.59,7.77H1163v8Z" transform="translate(-1006.985 -3537)"/>
  <path id="Rectangle_3_copy_5" data-name="Rectangle 3 copy 5" class="cls-9" d="M1152.16,3559.21c14.56,8.35,14.43,21.96-.3,30.41s-38.46,8.52-53.03.17-14.42-21.97.3-30.41S1137.6,3550.86,1152.16,3559.21Z" transform="translate(-1006.985 -3537)"/>
</svg>
