<svg xmlns="http://www.w3.org/2000/svg" xmlns:xlink="http://www.w3.org/1999/xlink" width="240" height="170" viewBox="0 0 240 170">
  <defs>
    <style>
      .cls-1, .cls-10, .cls-11, .cls-12, .cls-2, .cls-3, .cls-4, .cls-5, .cls-6, .cls-7, .cls-8, .cls-9 {
        fill-rule: evenodd;
      }

      .cls-1 {
        fill: url(#linear-gradient);
      }

      .cls-2 {
        fill: url(#linear-gradient-2);
      }

      .cls-3 {
        fill: #333c5e;
      }

      .cls-4 {
        fill: #667196;
      }

      .cls-5 {
        fill: #9fa5b9;
      }

      .cls-6 {
        fill: #5b678e;
      }

      .cls-7 {
        fill: #8991ab;
      }

      .cls-8 {
        fill: #2e79f6;
      }

      .cls-9 {
        fill: #00b3fd;
      }

      .cls-10 {
        fill: url(#linear-gradient-3);
      }

      .cls-11 {
        fill: url(#linear-gradient-4);
      }

      .cls-12 {
        fill: url(#linear-gradient-5);
      }
    </style>
    <linearGradient id="linear-gradient" x1="347.969" y1="3622.5" x2="570" y2="3622.5" gradientUnits="userSpaceOnUse">
      <stop offset="0" stop-color="#c4cbdc"/>
      <stop offset="0.464" stop-color="#c0c7da"/>
      <stop offset="0.541" stop-color="#d7dbe8"/>
      <stop offset="1" stop-color="#e4e7f0"/>
    </linearGradient>
    <linearGradient id="linear-gradient-2" x1="348" y1="3608" x2="570" y2="3608" gradientUnits="userSpaceOnUse">
      <stop offset="0" stop-color="#ebeef7"/>
      <stop offset="1" stop-color="#f6f8fe"/>
    </linearGradient>
    <linearGradient id="linear-gradient-3" x1="458" y1="3626.03" x2="458" y2="3587.03" gradientUnits="userSpaceOnUse">
      <stop offset="0" stop-color="#003182"/>
      <stop offset="1" stop-color="#00b3fd"/>
    </linearGradient>
    <linearGradient id="linear-gradient-4" x1="458" y1="3609.03" x2="458" y2="3570.03" xlink:href="#linear-gradient-3"/>
    <linearGradient id="linear-gradient-5" x1="458" y1="3592.03" x2="458" y2="3553.03" xlink:href="#linear-gradient-3"/>
  </defs>
  <path id="Rounded_Rectangle_7_copy" data-name="Rounded Rectangle 7 copy" class="cls-1" d="M570,3636h-0.09a1.93,1.93,0,0,1-1.178,2.26l-106.7,62a6.69,6.69,0,0,1-6.1,0l-106.7-62a1.932,1.932,0,0,1-1.178-2.26H348v-27h0.067a1.92,1.92,0,0,1,1.167-2.28l106.7-62a6.69,6.69,0,0,1,6.1,0l106.7,62A1.92,1.92,0,0,1,569.9,3609H570v27Z" transform="translate(-338.985 -3537)"/>
  <path id="Rounded_Rectangle_7_copy_2" data-name="Rounded Rectangle 7 copy 2" class="cls-2" d="M568.732,3609.77l-106.7,62.49a6.69,6.69,0,0,1-6.1,0l-106.7-62.49c-1.683-.98-1.683-2.58,0-3.57l106.7-62.48a6.69,6.69,0,0,1,6.1,0l106.7,62.48C570.415,3607.19,570.415,3608.79,568.732,3609.77Zm-6.92-3.43-99.972-57.67a6.317,6.317,0,0,0-5.712,0l-99.971,57.67c-1.578.91-1.578,2.39,0,3.3l99.971,57.67a6.317,6.317,0,0,0,5.712,0l99.972-57.67C563.389,3608.73,563.389,3607.25,561.812,3606.34Z" transform="translate(-338.985 -3537)"/>
  <path id="Rounded_Rectangle_7_copy_3" data-name="Rounded Rectangle 7 copy 3" class="cls-3" d="M456.128,3667.31l-80.294-46.32,80.294-46.32a6.317,6.317,0,0,1,5.712,0l80.294,46.32-80.294,46.32A6.317,6.317,0,0,1,456.128,3667.31Z" transform="translate(-338.985 -3537)"/>
  <path id="Rectangle_6_copy" data-name="Rectangle 6 copy" class="cls-4" d="M556.6,3626.37a0.852,0.852,0,0,1-1.39-.81,3.039,3.039,0,0,1,1.4-2.38,0.852,0.852,0,0,1,1.39.81A3.021,3.021,0,0,1,556.6,3626.37Zm-0.01,2.4a0.852,0.852,0,0,1,1.39.81,3.021,3.021,0,0,1-1.4,2.38,0.852,0.852,0,0,1-1.39-.81A3.036,3.036,0,0,1,556.587,3628.77Zm-0.019,5.59a0.852,0.852,0,0,1,1.39.81,3.039,3.039,0,0,1-1.4,2.38,0.852,0.852,0,0,1-1.39-.81A3.021,3.021,0,0,1,556.568,3634.36Zm-5.55-4.85a0.852,0.852,0,0,1-1.39-.81,3.022,3.022,0,0,1,1.4-2.38,0.852,0.852,0,0,1,1.39.81A3.04,3.04,0,0,1,551.018,3629.51Zm-0.009,2.4a0.852,0.852,0,0,1,1.389.81,3,3,0,0,1-1.4,2.37,0.847,0.847,0,0,1-1.39-.8A3.022,3.022,0,0,1,551.009,3631.91Zm-0.02,5.59a0.851,0.851,0,0,1,1.39.81,3,3,0,0,1-1.4,2.37,0.851,0.851,0,0,1-1.39-.81A3.021,3.021,0,0,1,550.989,3637.5Zm-5.55-4.86a0.852,0.852,0,0,1-1.39-.81,3.007,3.007,0,0,1,1.4-2.37,0.849,0.849,0,0,1,1.39.8A3.022,3.022,0,0,1,545.439,3632.64Zm-0.009,2.41a0.847,0.847,0,0,1,1.39.8,3.022,3.022,0,0,1-1.4,2.38,0.852,0.852,0,0,1-1.39-.81A3.007,3.007,0,0,1,545.43,3635.05Zm-0.019,5.58a0.852,0.852,0,0,1,1.39.81,3.025,3.025,0,0,1-1.4,2.38,0.852,0.852,0,0,1-1.39-.81A3.037,3.037,0,0,1,545.411,3640.63Z" transform="translate(-338.985 -3537)"/>
  <path class="cls-5" d="M556.6,3627.37a0.852,0.852,0,0,1-1.39-.81,3.039,3.039,0,0,1,1.4-2.38,0.852,0.852,0,0,1,1.39.81A3.021,3.021,0,0,1,556.6,3627.37Zm-0.01,2.4a0.852,0.852,0,0,1,1.39.81,3.021,3.021,0,0,1-1.4,2.38,0.852,0.852,0,0,1-1.39-.81A3.036,3.036,0,0,1,556.587,3629.77Zm-0.019,5.59a0.852,0.852,0,0,1,1.39.81,3.039,3.039,0,0,1-1.4,2.38,0.852,0.852,0,0,1-1.39-.81A3.021,3.021,0,0,1,556.568,3635.36Zm-5.55-4.85a0.852,0.852,0,0,1-1.39-.81,3.022,3.022,0,0,1,1.4-2.38,0.852,0.852,0,0,1,1.39.81A3.04,3.04,0,0,1,551.018,3630.51Zm-0.009,2.4a0.852,0.852,0,0,1,1.389.81,3,3,0,0,1-1.4,2.37,0.847,0.847,0,0,1-1.39-.8A3.022,3.022,0,0,1,551.009,3632.91Zm-0.02,5.59a0.851,0.851,0,0,1,1.39.81,3,3,0,0,1-1.4,2.37,0.851,0.851,0,0,1-1.39-.81A3.021,3.021,0,0,1,550.989,3638.5Zm-5.55-4.86a0.852,0.852,0,0,1-1.39-.81,3.007,3.007,0,0,1,1.4-2.37,0.849,0.849,0,0,1,1.39.8A3.022,3.022,0,0,1,545.439,3633.64Zm-0.009,2.41a0.847,0.847,0,0,1,1.39.8,3.022,3.022,0,0,1-1.4,2.38,0.852,0.852,0,0,1-1.39-.81A3.007,3.007,0,0,1,545.43,3636.05Zm-0.019,5.58a0.852,0.852,0,0,1,1.39.81,3.025,3.025,0,0,1-1.4,2.38,0.852,0.852,0,0,1-1.39-.81A3.037,3.037,0,0,1,545.411,3641.63Z" transform="translate(-338.985 -3537)"/>
  <path class="cls-6" d="M439,3677.79c0,1.16-.9,1.56-2,0.89l-9.992-6.06a4.383,4.383,0,0,1-1.993-3.32l0.006-2.1c0-1.17.9-1.56,2-.89l9.993,6.06a4.366,4.366,0,0,1,1.992,3.31Zm-21-11.11-9.992-6.06a4.383,4.383,0,0,1-1.993-3.32l0.006-2.1c0-1.16.9-1.56,2-.89l9.993,6.06a4.366,4.366,0,0,1,1.992,3.31L420,3665.79C420,3666.95,419.1,3667.35,418,3666.68Z" transform="translate(-338.985 -3537)"/>
  <path id="Rectangle_7_copy" data-name="Rectangle 7 copy" class="cls-7" d="M439,3678.79c0,1.16-.9,1.56-2,0.89l-9.992-6.06a4.383,4.383,0,0,1-1.993-3.32l0.006-2.1c0-1.17.9-1.56,2-.89l9.993,6.06a4.366,4.366,0,0,1,1.992,3.31Zm-21-11.11-9.992-6.06a4.383,4.383,0,0,1-1.993-3.32l0.006-2.1c0-1.16.9-1.56,2-.89l9.993,6.06a4.366,4.366,0,0,1,1.992,3.31L420,3666.79C420,3667.95,419.1,3668.35,418,3667.68Z" transform="translate(-338.985 -3537)"/>
  <path id="Rectangle_3_copy_4" data-name="Rectangle 3 copy 4" class="cls-8" d="M496,3616h-0.062c-0.323,5.3-4.043,10.56-11.222,14.62-14.923,8.45-38.981,8.52-53.737.17-7.207-4.08-10.836-9.41-10.949-14.79H420v-8.01h2.57a25.451,25.451,0,0,1,8.712-7.61c14.923-8.45,38.981-8.52,53.736-.17a24.179,24.179,0,0,1,8.7,7.78H496V3616Z" transform="translate(-338.985 -3537)"/>
  <path id="Rectangle_3_copy_5" data-name="Rectangle 3 copy 5" class="cls-9" d="M485.018,3593.23c14.756,8.34,14.62,21.93-.3,30.37s-38.981,8.51-53.737.17-14.619-21.94.3-30.37S470.263,3584.89,485.018,3593.23Z" transform="translate(-338.985 -3537)"/>
  <path id="Rectangle_3_copy_13" data-name="Rectangle 3 copy 13" class="cls-10" d="M430.979,3619.79c-6.416-3.63-10.009-8.26-10.8-13.02,0.789-4.87,4.484-9.63,11.106-13.37,14.923-8.43,38.981-8.51,53.736-.17,6.416,3.63,10.01,8.25,10.8,13-0.789,4.88-4.483,9.64-11.105,13.39C469.793,3628.07,445.735,3628.14,430.979,3619.79Z" transform="translate(-338.985 -3537)"/>
  <path id="Rectangle_3_copy_31" data-name="Rectangle 3 copy 31" class="cls-8" d="M496,3599h-0.062c-0.323,5.3-4.043,10.56-11.222,14.62-14.923,8.45-38.981,8.52-53.737.17-7.207-4.08-10.836-9.41-10.949-14.79H420v-8.01h2.57a25.451,25.451,0,0,1,8.712-7.61c14.923-8.45,38.981-8.52,53.736-.17a24.179,24.179,0,0,1,8.7,7.78H496V3599Z" transform="translate(-338.985 -3537)"/>
  <path id="Rectangle_3_copy_32" data-name="Rectangle 3 copy 32" class="cls-9" d="M485.018,3576.23c14.756,8.34,14.62,21.93-.3,30.37s-38.981,8.51-53.737.17-14.619-21.94.3-30.37S470.263,3567.89,485.018,3576.23Z" transform="translate(-338.985 -3537)"/>
  <path id="Rectangle_3_copy_33" data-name="Rectangle 3 copy 33" class="cls-11" d="M430.979,3602.79c-6.416-3.63-10.009-8.26-10.8-13.02,0.789-4.87,4.484-9.63,11.106-13.37,14.923-8.43,38.981-8.51,53.736-.17,6.416,3.63,10.01,8.25,10.8,13-0.789,4.88-4.483,9.64-11.105,13.39C469.793,3611.07,445.735,3611.14,430.979,3602.79Z" transform="translate(-338.985 -3537)"/>
  <path id="Rectangle_3_copy_28" data-name="Rectangle 3 copy 28" class="cls-8" d="M496,3582h-0.062c-0.323,5.3-4.043,10.56-11.222,14.62-14.923,8.45-38.981,8.52-53.737.17-7.207-4.08-10.836-9.41-10.949-14.79H420v-8.01h2.57a25.451,25.451,0,0,1,8.712-7.61c14.923-8.45,38.981-8.52,53.736-.17a24.179,24.179,0,0,1,8.7,7.78H496V3582Z" transform="translate(-338.985 -3537)"/>
  <path id="Rectangle_3_copy_29" data-name="Rectangle 3 copy 29" class="cls-9" d="M485.018,3559.23c14.756,8.34,14.62,21.93-.3,30.37s-38.981,8.51-53.737.17-14.619-21.94.3-30.37S470.263,3550.89,485.018,3559.23Z" transform="translate(-338.985 -3537)"/>
  <path id="Rectangle_3_copy_30" data-name="Rectangle 3 copy 30" class="cls-12" d="M430.979,3585.79c-6.416-3.63-10.009-8.26-10.8-13.02,0.789-4.87,4.484-9.63,11.106-13.37,14.923-8.43,38.981-8.51,53.736-.17,6.416,3.63,10.01,8.25,10.8,13-0.789,4.88-4.483,9.64-11.105,13.39C469.793,3594.07,445.735,3594.14,430.979,3585.79Z" transform="translate(-338.985 -3537)"/>
</svg>
