<svg xmlns="http://www.w3.org/2000/svg" xmlns:xlink="http://www.w3.org/1999/xlink" width="80" height="60" viewBox="0 0 80 60">
  <defs>
    <style>
      .cls-1, .cls-2, .cls-3, .cls-4, .cls-5 {
        fill-rule: evenodd;
      }

      .cls-1 {
        fill: url(#linear-gradient);
      }

      .cls-2 {
        fill: url(#linear-gradient-2);
      }

      .cls-3 {
        fill: #89d8ff;
      }

      .cls-4 {
        fill: url(#linear-gradient-3);
      }

      .cls-5 {
        fill: #0054b9;
      }
    </style>
    <linearGradient id="linear-gradient" x1="1423" y1="3539.5" x2="1499" y2="3539.5" gradientUnits="userSpaceOnUse">
      <stop offset="0" stop-color="#1d53da"/>
      <stop offset="1" stop-color="#3e74fb"/>
    </linearGradient>
    <linearGradient id="linear-gradient-2" x1="1423" y1="3532.5" x2="1499" y2="3532.5" gradientUnits="userSpaceOnUse">
      <stop offset="0" stop-color="#039af7"/>
      <stop offset="1" stop-color="#00b8fe"/>
    </linearGradient>
    <linearGradient id="linear-gradient-3" x1="1460.705" y1="3541.97" x2="1460.705" y2="3511.03" gradientUnits="userSpaceOnUse">
      <stop offset="0" stop-color="#003182"/>
      <stop offset="1" stop-color="#00b3fd"/>
    </linearGradient>
  </defs>
  <path id="Rectangle_3_copy_21" data-name="Rectangle 3 copy 21" class="cls-1" d="M1499,3540h-0.06c-0.32,5.3-4.04,10.56-11.22,14.62-14.93,8.45-38.99,8.52-53.74.17-7.21-4.08-10.84-9.41-10.95-14.79H1423v-8.01h2.57a25.5,25.5,0,0,1,8.71-7.61c14.92-8.45,38.98-8.52,53.74-.17a24.209,24.209,0,0,1,8.7,7.78H1499V3540Z" transform="translate(-1421 -3506.03)"/>
  <path id="Rectangle_3_copy_23" data-name="Rectangle 3 copy 23" class="cls-2" d="M1488.02,3517.23c14.75,8.34,14.62,21.93-.3,30.37s-38.99,8.51-53.74.17-14.62-21.94.3-30.37S1473.26,3508.89,1488.02,3517.23Z" transform="translate(-1421 -3506.03)"/>
  <path class="cls-3" d="M1444.65,3523.61l21.79,5.17,8.31,12.48-23.24-3.83Zm3.82-1.58,37.02-4.39-8.15,21.31-7.94-11.96Zm22.92,21.24-35.5,3.32,5.76-20.56,6.23,13.45Z" transform="translate(-1421 -3506.03)"/>
  <path id="Rectangle_3_copy_25" data-name="Rectangle 3 copy 25" class="cls-4" d="M1486.86,3535.6c-14.72,8.43-38.46,8.51-53.03.17-4.53-2.6-7.63-5.7-9.32-9,1.74-3.42,4.99-6.66,9.77-9.37,14.92-8.43,38.98-8.51,53.74-.17a23.9,23.9,0,0,1,8.89,8.08C1495.33,3529.07,1492.01,3532.65,1486.86,3535.6Z" transform="translate(-1421 -3506.03)"/>
  <path id="Shape_2_copy" data-name="Shape 2 copy" class="cls-5" d="M1477.34,3538.95l-7.94-11.96-20.93-4.96,37.02-4.39Zm-10.9-10.17,7.74,11.62c-0.69.16-1.39,0.29-2.09,0.43l-20.58-3.4-6.86-13.82Zm-28.12,9.15,3.33-11.9,6.23,13.45,14.98,2.41A58.78,58.78,0,0,1,1438.32,3537.93Z" transform="translate(-1421 -3506.03)"/>
</svg>
