<svg id="Group_4_copy" data-name="Group 4 copy" xmlns="http://www.w3.org/2000/svg" width="70" height="50" viewBox="0 0 70 50">
  <defs>
    <style>
      .cls-1 {
        fill: #f72717;
      }

      .cls-2 {
        fill: #ffdf00;
        fill-rule: evenodd;
      }
    </style>
  </defs>
  <rect id="Shape_1_copy" data-name="Shape 1 copy" class="cls-1" x="3" y="4" width="64" height="42" rx="4" ry="4"/>
  <path class="cls-2" d="M1838.5,230.651l-1.1,2.1-0.34-2.348-2.32-.407,2.12-1.044-0.33-2.348,1.64,1.7,2.11-1.045-1.1,2.1,1.64,1.7ZM1832.33,249l-1.3-1.981-2.27.627,1.47-1.852-1.29-1.981,2.2,0.837,1.47-1.852-0.11,2.369,2.21,0.836-2.28.628Zm0.07-25.178-0.2,2.363-1.22-2.034-2.29.532,1.54-1.789-1.21-2.033,2.17,0.928,1.55-1.789-0.21,2.362,2.17,0.928Zm-11.43,16.9-5.72-4.182-5.72,4.182,2.19-6.766L1806,229.77h7.07l2.18-6.766,2.19,6.766h7.07l-5.72,4.182Zm16.22-2.376,0.65-2.28,0.81,2.228,2.35-.085-1.86,1.461,0.81,2.228L1838,240.57l-1.86,1.462,0.65-2.281-1.95-1.324Z" transform="translate(-1797 -210)"/>
</svg>
