<svg xmlns="http://www.w3.org/2000/svg" xmlns:xlink="http://www.w3.org/1999/xlink" width="80" height="60" viewBox="0 0 80 60">
  <defs>
    <style>
      .cls-1, .cls-2, .cls-3 {
        fill-rule: evenodd;
      }

      .cls-1 {
        fill: url(#linear-gradient);
      }

      .cls-2 {
        fill: url(#linear-gradient-2);
      }

      .cls-3 {
        fill: url(#linear-gradient-3);
      }
    </style>
    <linearGradient id="linear-gradient" x1="755" y1="3564.5" x2="831" y2="3564.5" gradientUnits="userSpaceOnUse">
      <stop offset="0" stop-color="#1d53da"/>
      <stop offset="1" stop-color="#3e74fb"/>
    </linearGradient>
    <linearGradient id="linear-gradient-2" x1="755" y1="3558" x2="831" y2="3558" gradientUnits="userSpaceOnUse">
      <stop offset="0" stop-color="#039af7"/>
      <stop offset="1" stop-color="#00b8fe"/>
    </linearGradient>
    <linearGradient id="linear-gradient-3" x1="793" y1="3570" x2="793" y2="3537" gradientUnits="userSpaceOnUse">
      <stop offset="0" stop-color="#003182"/>
      <stop offset="1" stop-color="#00b3fd"/>
    </linearGradient>
  </defs>
  <path id="Rectangle_3_copy_6" data-name="Rectangle 3 copy 6" class="cls-1" d="M831,3565h-0.063c-0.322,5.3-4.042,10.56-11.221,14.62-14.923,8.45-38.982,8.52-53.737.17-7.207-4.08-10.836-9.41-10.949-14.79H755v-8.01h2.57a25.451,25.451,0,0,1,8.712-7.61c14.923-8.45,38.981-8.52,53.736-.17a24.179,24.179,0,0,1,8.7,7.78H831V3565Z" transform="translate(-753 -3531.5)"/>
  <path id="Rectangle_3_copy_7" data-name="Rectangle 3 copy 7" class="cls-2" d="M820.018,3543.06c14.756,8.16,14.62,21.46-.3,29.71s-38.982,8.32-53.737.17-14.619-21.46.3-29.71S805.263,3534.91,820.018,3543.06Z" transform="translate(-753 -3531.5)"/>
  <path id="Rectangle_3_copy_16" data-name="Rectangle 3 copy 16" class="cls-3" d="M819.626,3563.82c-14.873,8.18-38.85,8.26-53.556.16-5.286-2.91-8.622-6.48-10.078-10.24,1.491-3.84,4.938-7.52,10.38-10.52,14.872-8.19,38.85-8.27,53.555-.16,5.287,2.91,8.623,6.49,10.079,10.25C828.515,3557.15,825.068,3560.82,819.626,3563.82Z" transform="translate(-753 -3531.5)"/>
</svg>
