<svg xmlns="http://www.w3.org/2000/svg" xmlns:xlink="http://www.w3.org/1999/xlink" width="80" height="60" viewBox="0 0 80 60">
  <defs>
    <style>
      .cls-1, .cls-2, .cls-3 {
        fill-rule: evenodd;
      }

      .cls-1 {
        fill: url(#linear-gradient);
      }

      .cls-2 {
        fill: url(#linear-gradient-2);
      }

      .cls-3 {
        fill: #1d54db;
      }
    </style>
    <linearGradient id="linear-gradient" x1="755" y1="3520.5" x2="826" y2="3520.5" gradientUnits="userSpaceOnUse">
      <stop offset="0" stop-color="#1d53da"/>
      <stop offset="1" stop-color="#3e74fb"/>
    </linearGradient>
    <linearGradient id="linear-gradient-2" x1="755" y1="3513.5" x2="826.156" y2="3513.5" gradientUnits="userSpaceOnUse">
      <stop offset="0" stop-color="#039af7"/>
      <stop offset="1" stop-color="#00b8fe"/>
    </linearGradient>
  </defs>
  <path id="Rectangle_3_copy_18" data-name="Rectangle 3 copy 18" class="cls-1" d="M793,3514.05l33,8.64v7.18a27,27,0,0,1-7.136,5.73c-14.726,8.43-38.468,8.51-53.029.17-7.113-4.07-10.694-9.4-10.806-14.77H755v-8h2.537a25.3,25.3,0,0,1,8.6-7.6c13.954-7.99,35.99-8.46,50.653-1.4Z" transform="translate(-750.578 -3486.97)"/>
  <path id="Rectangle_3_copy_18-2" data-name="Rectangle 3 copy 18" class="cls-2" d="M793,3514.05l33.15,8.68a27.317,27.317,0,0,1-7.286,5.89c-14.726,8.44-38.468,8.52-53.029.17s-14.427-21.97.3-30.41,38.468-8.52,53.029-.17a29.7,29.7,0,0,1,4.288,2.98Z" transform="translate(-750.578 -3486.97)"/>
  <path id="Color_Fill_1" data-name="Color Fill 1" class="cls-3" d="M823,3501.38v7l-19.769,8.35L793,3514.05Z" transform="translate(-750.578 -3486.97)"/>
</svg>
