<svg xmlns="http://www.w3.org/2000/svg" xmlns:xlink="http://www.w3.org/1999/xlink" width="80" height="60" viewBox="0 0 80 60">
  <defs>
    <style>
      .cls-1, .cls-2, .cls-3, .cls-4, .cls-5 {
        fill-rule: evenodd;
      }

      .cls-1 {
        fill: url(#linear-gradient);
      }

      .cls-2 {
        fill: url(#linear-gradient-2);
      }

      .cls-3 {
        fill: #89d8ff;
      }

      .cls-4 {
        fill: url(#linear-gradient-3);
      }

      .cls-5 {
        fill: #0054b9;
      }
    </style>
    <linearGradient id="linear-gradient" x1="1423" y1="3564.5" x2="1499" y2="3564.5" gradientUnits="userSpaceOnUse">
      <stop offset="0" stop-color="#1d53da"/>
      <stop offset="1" stop-color="#3e74fb"/>
    </linearGradient>
    <linearGradient id="linear-gradient-2" x1="1423" y1="3557.5" x2="1499" y2="3557.5" gradientUnits="userSpaceOnUse">
      <stop offset="0" stop-color="#039af7"/>
      <stop offset="1" stop-color="#00b8fe"/>
    </linearGradient>
    <linearGradient id="linear-gradient-3" x1="1460.705" y1="3566.97" x2="1460.705" y2="3536.03" gradientUnits="userSpaceOnUse">
      <stop offset="0" stop-color="#003182"/>
      <stop offset="1" stop-color="#00b3fd"/>
    </linearGradient>
  </defs>
  <path id="Rectangle_3_copy_6" data-name="Rectangle 3 copy 6" class="cls-1" d="M1499,3565h-0.06c-0.32,5.3-4.04,10.56-11.22,14.62-14.93,8.45-38.99,8.52-53.74.17-7.21-4.08-10.84-9.41-10.95-14.79H1423v-8.01h2.57a25.5,25.5,0,0,1,8.71-7.61c14.92-8.45,38.98-8.52,53.74-.17a24.209,24.209,0,0,1,8.7,7.78H1499V3565Z" transform="translate(-1421 -3531.03)"/>
  <path id="Rectangle_3_copy_7" data-name="Rectangle 3 copy 7" class="cls-2" d="M1488.02,3542.23c14.75,8.34,14.62,21.93-.3,30.37s-38.99,8.51-53.74.17-14.62-21.94.3-30.37S1473.26,3533.89,1488.02,3542.23Z" transform="translate(-1421 -3531.03)"/>
  <path class="cls-3" d="M1468.7,3558.75l5.19-3.07,11.86,7.02,7.9-4.68-32.28-19.13-7.9,4.68,11.85,7.03-5.18,3.07c-10.08-5.45-19.23-8.61-21.52-7.25s3.05,6.78,12.23,12.75l-16.62,9.85,8.57,5.08,16.63-9.85c10.06,5.44,19.2,8.59,21.48,7.24s-3.03-6.77-12.21-12.73m-7.87,4.66h0.01c-0.26-.14-1.58-0.83-4.34-2.47-2.22-1.31-3.71-2.27-4.23-2.61h-0.01c-8.13-5.27-13-9.91-11.23-10.96s9.62,1.83,18.51,6.65l-5.8,3.44c0.52,0.35,2.02,1.35,4.22,2.65,2.65,1.57,4.09,2.29,4.35,2.43l5.8-3.44c8.11,5.26,12.97,9.9,11.2,10.95s-9.6-1.83-18.47-6.64" transform="translate(-1421 -3531.03)"/>
  <path id="Rectangle_3_copy_24" data-name="Rectangle 3 copy 24" class="cls-4" d="M1486.86,3560.6c-14.72,8.43-38.46,8.51-53.03.17-4.53-2.6-7.63-5.7-9.32-9,1.74-3.42,4.99-6.66,9.77-9.37,14.92-8.43,38.98-8.51,53.74-.17a23.9,23.9,0,0,1,8.89,8.08C1495.33,3554.07,1492.01,3557.65,1486.86,3560.6Z" transform="translate(-1421 -3531.03)"/>
  <path id="Shape_1_copy" data-name="Shape 1 copy" class="cls-5" d="M1461.37,3538.89l30.56,18.11a30.9,30.9,0,0,1-5.07,3.6c-0.8.46-1.64,0.88-2.49,1.29l-10.48-6.21-5.19,3.07v0.01a77.174,77.174,0,0,1,8.11,5.95l-0.77.21a75.349,75.349,0,0,0-7.93-5.81l-5.8,3.44c-0.26-.14-1.7-0.86-4.35-2.43-2.2-1.3-3.7-2.3-4.22-2.65l5.8-3.44c-8.89-4.82-16.73-7.7-18.51-6.65s3.1,5.69,11.23,10.96h0.01c0.52,0.34,2.01,1.3,4.23,2.61,2.76,1.64,4.08,2.33,4.34,2.47h0c2.18,1.18,4.3,2.25,6.28,3.17-0.89.09-1.78,0.16-2.67,0.22-1.63-.78-3.31-1.63-5.02-2.56l-4.24,2.52a57.992,57.992,0,0,1-13.04-2.44l8.7-5.16c-9.18-5.97-14.52-11.39-12.23-12.75s11.44,1.8,21.52,7.25l5.18-3.07-11.85-7.03Z" transform="translate(-1421 -3531.03)"/>
</svg>
